<svg width="400" height="400" viewBox="0 0 400 400" xmlns="http://www.w3.org/2000/svg">
  <rect width="400" height="400" fill="#FAFAF9"/>
  <circle cx="200" cy="160" r="80" fill="#F3F4F6"/>
  <rect x="175" y="240" width="50" height="40" fill="#F3F4F6"/>
  <path d="M120,280 Q200,320 280,280" fill="#F3F4F6"/>
  <path d="M120,80 Q200,40 280,80 Q260,140 240,120 Q220,100 200,120 Q180,100 160,120 Q140,140 120,80Z" fill="#1F2937" opacity="0.8"/>
  <circle cx="160" cy="150" r="12" fill="#1F2937"/>
  <circle cx="240" cy="150" r="12" fill="#1F2937"/>
  <circle cx="162" cy="148" r="4" fill="#FFFFFF"/>
  <circle cx="242" cy="148" r="4" fill="#FFFFFF"/>
  <path d="M160,190 Q200,220 240,190" stroke="#1F2937" stroke-width="8" stroke-linecap="round" fill="none"/>
  <rect x="120" y="280" width="160" height="80" fill="#0D9488" opacity="0.8"/>
  <circle cx="200" cy="300" r="30" fill="#F97316" opacity="0.9"/>
  <circle cx="50" cy="50" r="30" fill="#F97316" opacity="0.1"/>
  <circle cx="350" cy="350" r="40" fill="#0D9488" opacity="0.1"/>
  <circle cx="350" cy="50" r="25" fill="#F59E0B" opacity="0.1"/>
  <circle cx="50" cy="350" r="35" fill="#34D399" opacity="0.1"/>
</svg>